# xmcd
#
# Track frame offsets:
#	150
#	16759
#	32597
#	49057
#	64414
#	79985
#	96050
#	109670
#	126766
#	144551
#
# Disc length: 2178 seconds
#
# Revision: 0
# Processed by: cddbd v1.5.2PL0 Copyright (c) Steve Scherf et al.
# Submitted via: EZCDAudioConverter 1.1.0.1
#
DISCID=8008800a
DTITLE=Tyrone Vaughan - Downtime
DYEAR=2012
DGENRE=Blues
TTITLE0=Downtime
TTITLE1=Next Stop Texas
TTITLE2=Bubba Dan
TTITLE3=Buzz Kill
TTITLE4=Nine Times Out Of Ten
TTITLE5=She Could Have Had Anything
TTITLE6=L.O.V.E
TTITLE7=Ladies' Man
TTITLE8=Wanna Hear You Sing
TTITLE9=The House Feels So Empty
EXTD=
EXTT0=
EXTT1=
EXTT2=
EXTT3=
EXTT4=
EXTT5=
EXTT6=
EXTT7=
EXTT8=
EXTT9=
PLAYORDER=
